<?xml version="1.0" encoding="iso-8859-1"?>
<!-- Generator: Adobe Illustrator 19.0.0, SVG Export Plug-In . SVG Version: 6.00 Build 0)  -->
<svg version="1.1" id="Layer_1" xmlns="http://www.w3.org/2000/svg" xmlns:xlink="http://www.w3.org/1999/xlink" x="0px" y="0px"
	 viewBox="0 0 512 512" style="enable-background:new 0 0 512 512;" xml:space="preserve">
<g transform="translate(1)">
	<g>
		<path style="fill:#FFE100;" d="M225.133,503.467H105.667c0-18.773,15.36-34.133,34.133-34.133H191
			C209.773,469.333,225.133,484.693,225.133,503.467"/>
		<path style="fill:#FFE100;" d="M148.333,25.6v443.733h34.133V25.6c0-9.387-7.68-17.067-17.067-17.067S148.333,16.213,148.333,25.6
			"/>
		<polygon style="fill:#FFE100;" points="233.667,307.2 404.333,307.2 404.333,34.133 233.667,34.133 		"/>
	</g>
	<polygon style="fill:#63D3FD;" points="276.333,145.067 361.667,145.067 361.667,76.8 276.333,76.8 	"/>
	<polygon style="fill:#FFA800;" points="378.733,307.2 404.333,307.2 404.333,34.133 378.733,34.133 	"/>
	<g>
		<path style="fill:#FFE100;" d="M233.667,110.933h-51.2c-5.12,0-8.533-3.413-8.533-8.533c0-5.12,3.413-8.533,8.533-8.533h51.2
			c5.12,0,8.533,3.413,8.533,8.533C242.2,107.52,238.787,110.933,233.667,110.933z"/>
		<path style="fill:#FFE100;" d="M233.667,264.533h-51.2c-5.12,0-8.533-3.413-8.533-8.533c0-5.12,3.413-8.533,8.533-8.533h51.2
			c5.12,0,8.533,3.413,8.533,8.533C242.2,261.12,238.787,264.533,233.667,264.533z"/>
	</g>
	<path d="M225.133,512L225.133,512H105.667c-5.12,0-8.533-3.413-8.533-8.533c0-23.893,18.773-42.667,42.667-42.667H191
		c23.04,0,41.813,17.92,42.667,40.96c0,0.853,0,0.853,0,1.707C233.667,508.587,230.253,512,225.133,512z M115.907,494.933h99.84
		c-3.413-10.24-12.8-17.067-23.893-17.067H139.8C128.707,477.867,119.32,484.693,115.907,494.933z"/>
	<path d="M182.467,477.867h-34.133c-5.12,0-8.533-3.413-8.533-8.533V25.6c0-14.507,11.093-25.6,25.6-25.6S191,11.093,191,25.6
		v443.733C191,474.453,187.587,477.867,182.467,477.867z M156.867,460.8h17.067V25.6c0-5.12-3.413-8.533-8.533-8.533
		s-8.533,3.413-8.533,8.533V460.8z"/>
	<path d="M233.667,102.4h-51.2c-5.12,0-8.533-3.413-8.533-8.533s3.413-8.533,8.533-8.533h51.2c5.12,0,8.533,3.413,8.533,8.533
		S238.787,102.4,233.667,102.4z"/>
	<path d="M233.667,256h-51.2c-5.12,0-8.533-3.413-8.533-8.533c0-5.12,3.413-8.533,8.533-8.533h51.2c5.12,0,8.533,3.413,8.533,8.533
		C242.2,252.587,238.787,256,233.667,256z"/>
	<path d="M404.333,315.733H233.667c-5.12,0-8.533-3.413-8.533-8.533V34.133c0-5.12,3.413-8.533,8.533-8.533h170.667
		c5.12,0,8.533,3.413,8.533,8.533V307.2C412.867,312.32,409.453,315.733,404.333,315.733z M242.2,298.667h153.6v-256H242.2V298.667z
		"/>
	<path d="M276.333,187.733c-5.12,0-8.533-3.413-8.533-8.533V93.867c0-5.12,3.413-8.533,8.533-8.533s8.533,3.413,8.533,8.533V179.2
		C284.867,184.32,281.453,187.733,276.333,187.733z"/>
	<path d="M361.667,187.733c-5.12,0-8.533-3.413-8.533-8.533V93.867c0-5.12,3.413-8.533,8.533-8.533s8.533,3.413,8.533,8.533V179.2
		C370.2,184.32,366.787,187.733,361.667,187.733z"/>
	<path d="M353.133,221.867h-68.267c-5.12,0-8.533-3.413-8.533-8.533c0-5.12,3.413-8.533,8.533-8.533h68.267
		c5.12,0,8.533,3.413,8.533,8.533C361.667,218.453,358.253,221.867,353.133,221.867z"/>
	<path d="M370.2,264.533H267.8c-5.12,0-8.533-3.413-8.533-8.533c0-5.12,3.413-8.533,8.533-8.533h102.4
		c5.12,0,8.533,3.413,8.533,8.533C378.733,261.12,375.32,264.533,370.2,264.533z"/>
	<path d="M361.667,153.6h-85.333c-5.12,0-8.533-3.413-8.533-8.533V76.8c0-5.12,3.413-8.533,8.533-8.533h85.333
		c5.12,0,8.533,3.413,8.533,8.533v68.267C370.2,150.187,366.787,153.6,361.667,153.6z M284.867,136.533h68.267v-51.2h-68.267
		V136.533z"/>
	<path d="M319,153.6c-5.12,0-8.533-3.413-8.533-8.533V76.8c0-5.12,3.413-8.533,8.533-8.533c5.12,0,8.533,3.413,8.533,8.533v68.267
		C327.533,150.187,324.12,153.6,319,153.6z"/>
</g>
<g>
</g>
<g>
</g>
<g>
</g>
<g>
</g>
<g>
</g>
<g>
</g>
<g>
</g>
<g>
</g>
<g>
</g>
<g>
</g>
<g>
</g>
<g>
</g>
<g>
</g>
<g>
</g>
<g>
</g>
</svg>
