<?xml version="1.0" encoding="UTF-8" standalone="no"?><!DOCTYPE svg PUBLIC "-//W3C//DTD SVG 1.1//EN" "http://www.w3.org/Graphics/SVG/1.1/DTD/svg11.dtd"><svg width="100%" height="100%" viewBox="0 0 288 288" version="1.1" xmlns="http://www.w3.org/2000/svg" xmlns:xlink="http://www.w3.org/1999/xlink" xml:space="preserve" style="fill-rule:evenodd;clip-rule:evenodd;stroke-linejoin:round;stroke-miterlimit:1.41421;"><g><circle cx="143.893" cy="143.893" r="143.893" style="fill:#3498db;"/><path d="M287.759,146.732l-35.321,-35.321l-211.735,61.135l115.987,114.665c72.544,-6.381 129.652,-66.613 131.069,-140.479Z" style="fill:#2980b9;fill-rule:nonzero;"/><path d="M41.122,109.058l10.087,-1.74c0,-1.773 1.45,-3.255 3.255,-3.255l114.44,0c1.031,0 1.933,0.484 2.546,1.225l69.966,0c1.998,0 3.642,1.644 3.642,3.642l0,0.129l1.675,0c3.964,0 7.187,2.643 7.187,5.865l0,51.758c0,3.222 -3.223,5.865 -7.187,5.865l-205.546,0c-3.964,0 -7.445,-2.642 -7.187,-5.865l4.319,-51.565c0.257,-3.222 -1.096,-6.091 2.868,-6.091l-0.065,0.032Z" style="fill:#f1c40f;fill-rule:nonzero;"/><rect x="52.758" y="119.308" width="14.793" height="48.439" style="fill:#c1e9ff;"/><rect x="54.787" y="121.237" width="10.701" height="18.63" style="fill:#fff;"/><rect x="214.538" y="119.308" width="14.793" height="48.439" style="fill:#c1e9ff;"/><rect x="216.569" y="121.237" width="10.701" height="18.63" style="fill:#fff;"/><rect x="230.362" y="119.308" width="14.793" height="48.439" style="fill:#c1e9ff;"/><rect x="232.392" y="121.237" width="10.701" height="18.63" style="fill:#fff;"/><path d="M253.856,163.394l0,3.319c0,3.223 -3.222,5.865 -7.186,5.865l-205.548,0c-3.964,0 -7.186,-2.642 -7.186,-5.865l0,-3.319l219.92,0Z" style="fill:#e84f4f;fill-rule:nonzero;"/><path d="M84.146,157.109c-7.348,0 -13.31,5.962 -13.31,13.31c0,7.347 5.962,13.31 13.31,13.31c7.348,0 13.31,-5.962 13.31,-13.31c0,-7.348 -5.962,-13.31 -13.31,-13.31Z" style="fill:#333;fill-rule:nonzero;"/><path d="M84.146,162.33c-4.479,0 -8.089,3.642 -8.089,8.089c0,4.479 3.642,8.089 8.089,8.089c4.479,0 8.089,-3.642 8.089,-8.089c0.001,-4.479 -3.642,-8.089 -8.089,-8.089Z" style="fill:#e6e6e6;fill-rule:nonzero;"/><path d="M84.146,167.261c-1.74,0 -3.158,1.418 -3.158,3.158c0,1.74 1.418,3.158 3.158,3.158c1.74,0 3.158,-1.418 3.158,-3.158c0,-1.74 -1.418,-3.158 -3.158,-3.158Z" style="fill:#b3b3b3;fill-rule:nonzero;"/><path d="M73.124,114.053l20.11,0c0.613,0 1.097,0.516 1.097,1.128l0,15.889c0,0.612 -0.484,1.128 -1.097,1.128l-20.11,0c-0.612,0 -1.096,-0.516 -1.096,-1.128l0,-15.889c0,-0.612 0.484,-1.128 1.096,-1.128Zm115.923,0l20.11,0c0.612,0 1.096,0.516 1.096,1.128l0,15.889c0,0.612 -0.484,1.128 -1.096,1.128l-20.11,0c-0.612,0 -1.096,-0.516 -1.096,-1.128l0,-15.889c0,-0.612 0.483,-1.128 1.096,-1.128Zm-28.973,0l20.11,0c0.612,0 1.096,0.516 1.096,1.128l0,15.889c0,0.612 -0.483,1.128 -1.096,1.128l-20.11,0c-0.612,0 -1.096,-0.516 -1.096,-1.128l0,-15.889c0.001,-0.612 0.484,-1.128 1.096,-1.128Zm-28.972,0l20.11,0c0.612,0 1.096,0.516 1.096,1.128l0,15.889c0,0.612 -0.484,1.128 -1.096,1.128l-20.11,0c-0.613,0 -1.096,-0.516 -1.096,-1.128l0,-15.889c0,-0.612 0.483,-1.128 1.096,-1.128Zm-28.973,0l20.11,0c0.612,0 1.096,0.516 1.096,1.128l0,15.889c0,0.612 -0.483,1.128 -1.096,1.128l-20.11,0c-0.612,0 -1.096,-0.516 -1.096,-1.128l0,-15.889c0.001,-0.612 0.483,-1.128 1.096,-1.128Z" style="fill:#c1e9ff;fill-rule:nonzero;"/><path d="M38.06,117.566l6.961,-0.129c1.386,-0.032 2.514,1.128 2.514,2.514l0,28.167c0,1.385 -1.128,2.514 -2.514,2.514l-9.732,0c-1.901,0.161 0.516,-35.225 2.772,-33.098l-0.001,0.032Z" style="fill:#fff;fill-rule:nonzero;"/><path d="M200.133,157.109c-7.348,0 -13.31,5.962 -13.31,13.31c0,7.347 5.962,13.31 13.31,13.31c7.348,0 13.31,-5.962 13.31,-13.31c-0.001,-7.348 -5.962,-13.31 -13.31,-13.31Z" style="fill:#333;fill-rule:nonzero;"/><path d="M200.133,162.33c-4.479,0 -8.089,3.642 -8.089,8.089c0,4.479 3.642,8.089 8.089,8.089c4.479,0 8.089,-3.642 8.089,-8.089c0,-4.479 -3.642,-8.089 -8.089,-8.089Z" style="fill:#e6e6e6;fill-rule:nonzero;"/><path d="M200.133,167.261c-1.74,0 -3.159,1.418 -3.159,3.158c0,1.74 1.419,3.158 3.159,3.158c1.74,0 3.158,-1.418 3.158,-3.158c0,-1.74 -1.418,-3.158 -3.158,-3.158Z" style="fill:#b3b3b3;fill-rule:nonzero;"/><path d="M37.738,154.982l5.028,0c1.335,0 2.417,1.082 2.417,2.417l0,1.74c0,1.335 -1.082,2.417 -2.417,2.417l-5.028,0c-1.335,0 -2.417,-1.082 -2.417,-2.417l0,-1.74c0,-1.335 1.082,-2.417 2.417,-2.417Z" style="fill:#fff;fill-rule:nonzero;"/><path d="M36.868,164.747l1.225,0c0.908,0 1.644,0.737 1.644,1.644l0,1.225c0,0.908 -0.737,1.643 -1.644,1.643l-1.225,0c-0.907,0 -1.643,-0.736 -1.643,-1.643l0,-1.225c0,-0.908 0.736,-1.644 1.643,-1.644Z" style="fill:#666;fill-rule:nonzero;"/></g></svg>